<svg width="15" height="16" viewBox="0 0 15 16" fill="none" xmlns="http://www.w3.org/2000/svg">
<path d="M2.22407 0.614151C2.48748 0.132523 3.17921 0.132523 3.44262 0.614151L3.6605 1.01253C3.88992 1.43201 4.23481 1.7769 4.65429 2.00631L5.05267 2.2242C5.5343 2.48761 5.5343 3.17933 5.05267 3.44274L4.65429 3.66063C4.23481 3.89004 3.88992 4.23494 3.6605 4.65441L3.44262 5.05279C3.17921 5.53442 2.48748 5.53442 2.22407 5.05279L2.00619 4.65441C1.77677 4.23494 1.43188 3.89004 1.01241 3.66063L0.614029 3.44274C0.132401 3.17933 0.132401 2.48761 0.614029 2.2242L1.01241 2.00631C1.43188 1.7769 1.77677 1.432 2.00619 1.01253L2.22407 0.614151Z" fill="#5014ca"/>
<path fill-rule="evenodd" clip-rule="evenodd" d="M10.2758 4.65477C10.0756 3.35888 8.21787 3.33344 7.98232 4.62337L7.94914 4.80507C7.63229 6.54021 6.25872 7.88875 4.51804 8.17364C3.24099 8.38265 3.21458 10.2098 4.48505 10.4556L4.60164 10.4782C6.30485 10.8078 7.63669 12.1396 7.96628 13.8428L8.0018 14.0264C8.26159 15.3689 10.1829 15.3689 10.4427 14.0264L10.4703 13.8833C10.804 12.159 12.1613 10.816 13.889 10.5005C15.2048 10.2602 15.1326 8.35754 13.8099 8.15884C11.9981 7.88667 10.5555 6.46541 10.2758 4.65477ZM9.22695 12.3072C9.79155 11.0225 10.7953 9.98041 12.0506 9.36662C10.7749 8.80004 9.73507 7.79411 9.13152 6.535C8.55922 7.75545 7.57992 8.74128 6.36688 9.32242C7.64461 9.9394 8.66313 10.9995 9.22695 12.3072Z" fill="#5014ca"/>
</svg>
