<svg width="14" height="16" viewBox="0 0 14 16" fill="none" xmlns="http://www.w3.org/2000/svg">
<path d="M0.333349 3.27778C0.333349 1.59025 1.70137 0.222229 3.3889 0.222229H10.6111C12.2987 0.222229 13.6667 1.59025 13.6667 3.27778V4.25001C13.6667 4.71024 13.2936 5.08334 12.8333 5.08334C12.3731 5.08334 12 4.71024 12 4.25001V3.27778C12 2.51072 11.3782 1.8889 10.6111 1.8889H3.3889C2.62184 1.8889 2.00002 2.51072 2.00002 3.27778V4.25001C2.00002 4.71024 1.62692 5.08334 1.16668 5.08334C0.706445 5.08334 0.333349 4.71024 0.333349 4.25001V3.27778Z" fill="#4A4A4A"/>
<path d="M1.16668 10.9167C1.62692 10.9167 2.00002 11.2898 2.00002 11.75V12.7222C2.00002 13.4893 2.62184 14.1111 3.3889 14.1111H10.6111C11.3782 14.1111 12 13.4893 12 12.7222V11.75C12 11.2898 12.3731 10.9167 12.8333 10.9167C13.2936 10.9167 13.6667 11.2898 13.6667 11.75V12.7222C13.6667 14.4098 12.2987 15.7778 10.6111 15.7778H3.3889C1.70137 15.7778 0.333349 14.4098 0.333349 12.7222V11.75C0.333349 11.2898 0.706445 10.9167 1.16668 10.9167Z" fill="#4A4A4A"/>
<path d="M6.72268 8.00001C6.72268 8.46024 6.34958 8.83334 5.88935 8.83334H3.17853L3.97816 9.63297C4.3036 9.95841 4.3036 10.486 3.97816 10.8115C3.65273 11.1369 3.12509 11.1369 2.79965 10.8115L0.577423 8.58926C0.421131 8.43297 0.333333 8.22099 0.333344 7.99996C0.333355 7.77894 0.421174 7.56697 0.577481 7.41069L2.80015 5.18847C3.12562 4.86306 3.65326 4.86312 3.97866 5.18859C4.30406 5.51406 4.30401 6.04169 3.97854 6.3671L3.17881 7.16667H5.88935C6.34958 7.16667 6.72268 7.53977 6.72268 8.00001Z" fill="#4A4A4A"/>
<path d="M8.11113 8.83334C7.65089 8.83334 7.27779 8.46024 7.27779 8.00001C7.27779 7.53977 7.65089 7.16667 8.11113 7.16667H10.8217L10.0219 6.3671C9.69646 6.04169 9.69641 5.51406 10.0218 5.18859C10.3472 4.86312 10.8749 4.86306 11.2003 5.18847L13.423 7.41069C13.5793 7.56697 13.6671 7.77894 13.6671 7.99996C13.6671 8.22099 13.5793 8.43297 13.4231 8.58926L11.2008 10.8115C10.8754 11.1369 10.3477 11.1369 10.0223 10.8115C9.69687 10.486 9.69688 9.95841 10.0223 9.63297L10.8219 8.83334H8.11113Z" fill="#4A4A4A"/>
</svg>
