<svg width="16" height="17" viewBox="0 0 16 17" fill="none" xmlns="http://www.w3.org/2000/svg">
<path d="M9.40578 1.17048C8.55738 0.593565 7.44263 0.593565 6.59423 1.17048L2.04594 4.26332C0.905107 5.03908 0.222229 6.32924 0.222229 7.70884V15.9445C0.222229 16.4048 0.595325 16.7779 1.05556 16.7779C1.5158 16.7779 1.8889 16.4048 1.8889 15.9445V7.70884C1.8889 6.88108 2.29862 6.10699 2.98312 5.64153L7.53141 2.54869C7.81421 2.35638 8.1858 2.35638 8.4686 2.54869L13.0169 5.64153C13.7014 6.10699 14.1111 6.88108 14.1111 7.70884V15.9445C14.1111 16.4048 14.4842 16.7779 14.9445 16.7779C15.4047 16.7779 15.7778 16.4048 15.7778 15.9445V7.70884C15.7778 6.32924 15.0949 5.03908 13.9541 4.26332L9.40578 1.17048Z" fill="#4A4A4A"/>
<path fill-rule="evenodd" clip-rule="evenodd" d="M8.00001 16.7428C7.91122 16.7657 7.81814 16.7778 7.72223 16.7778H4.3889C3.77525 16.7778 3.27778 16.2804 3.27778 15.6667L3.27778 11.7778C3.27778 11.1642 3.77525 10.6667 4.3889 10.6667H5.22223V7.33339C5.22223 6.71974 5.71969 6.22228 6.33334 6.22228H9.66667C10.2803 6.22228 10.7778 6.71974 10.7778 7.33339V10.6667H11.6111C12.2248 10.6667 12.7222 11.1642 12.7222 11.7778V15.6667C12.7222 16.2804 12.2248 16.7778 11.6111 16.7778H8.27778C8.18187 16.7778 8.08879 16.7657 8.00001 16.7428ZM8.83334 12.3334V15.1112H11.0556V12.3334H8.83334ZM7.16667 15.1112L7.16667 12.3334H4.94445V15.1112H7.16667ZM9.11112 10.6667L9.11112 7.88894H6.8889V10.6667H9.11112Z" fill="#4A4A4A"/>
</svg>
