<svg width="18" height="14" viewBox="0 0 18 14" fill="none" xmlns="http://www.w3.org/2000/svg">
<path fill-rule="evenodd" clip-rule="evenodd" d="M2.33329 1.72201C2.33329 1.26177 2.70639 0.888672 3.16663 0.888672H10.9348C12.2991 0.888672 13.498 1.79305 13.8728 3.1048L14.3472 4.76491C14.3744 4.86037 14.4506 4.93401 14.5469 4.95809L16.416 5.42537C17.2816 5.64177 17.8888 6.41951 17.8888 7.31176V8.66645C17.8888 9.4562 17.418 10.136 16.7418 10.4404C16.7654 10.5863 16.7777 10.7361 16.7777 10.8887C16.7777 12.4228 15.5341 13.6664 14 13.6664C12.4658 13.6664 11.2222 12.4228 11.2222 10.8887C11.2222 10.7949 11.2268 10.7023 11.2359 10.6109H7.87513C7.8842 10.7023 7.88885 10.7949 7.88885 10.8887C7.88885 12.4228 6.64519 13.6664 5.11107 13.6664C3.57695 13.6664 2.33329 12.4228 2.33329 10.8887C2.33329 10.4936 2.41576 10.1178 2.56443 9.77756H2.05551C1.59528 9.77756 1.22218 9.40446 1.22218 8.94423C1.22218 8.48399 1.59528 8.11089 2.05551 8.11089H4.83329C4.86649 8.11089 4.89923 8.11283 4.93142 8.11661C4.99081 8.11282 5.05072 8.11089 5.11107 8.11089C5.88812 8.11089 6.59066 8.42996 7.0948 8.94423H12.0162C12.5204 8.42996 13.2229 8.11089 14 8.11089C14.7758 8.11089 15.4773 8.42896 15.9813 8.9418C16.1173 8.92375 16.2222 8.80735 16.2222 8.66645V7.31176C16.2222 7.18429 16.1354 7.07319 16.0118 7.04227L14.1426 6.57499C13.4685 6.40645 12.9355 5.89095 12.7446 5.22278L12.2703 3.56267C12.0999 2.96642 11.555 2.55534 10.9348 2.55534H3.16663C2.70639 2.55534 2.33329 2.18224 2.33329 1.72201ZM5.11107 11.9998C5.72472 11.9998 6.22218 11.5023 6.22218 10.8887C6.22218 10.275 5.72472 9.77756 5.11107 9.77756C4.49742 9.77756 3.99996 10.275 3.99996 10.8887C3.99996 11.5023 4.49742 11.9998 5.11107 11.9998ZM14 11.9998C14.6136 11.9998 15.1111 11.5023 15.1111 10.8887C15.1111 10.275 14.6136 9.77756 14 9.77756C13.3863 9.77756 12.8888 10.275 12.8888 10.8887C12.8888 11.5023 13.3863 11.9998 14 11.9998Z" fill="#4A4A4A"/>
<path d="M1.49996 4.77756C1.03972 4.77756 0.666626 5.15066 0.666626 5.61089C0.666626 6.07113 1.03972 6.44423 1.49996 6.44423H7.05551C7.51575 6.44423 7.88885 6.07113 7.88885 5.61089C7.88885 5.15066 7.51575 4.77756 7.05551 4.77756H1.49996Z" fill="#4A4A4A"/>
</svg>
